<?xml version="1.0" encoding="UTF-8"?>
<svg xmlns="http://www.w3.org/2000/svg" version="1.1" width="48" height="48" style="background-color:transparent;">
  <path d="M0 0 C2.37890625 0.48046875 2.37890625 0.48046875 5.44140625 2.54296875 C7.68376221 5.94266973 8.14166644 8.44739195 8.37890625 12.48046875 C10.68890625 12.48046875 12.99890625 12.48046875 15.37890625 12.48046875 C17.76998163 22.240267 18.97198201 31.46171332 19.37890625 41.48046875 C11.4639008 42.34600304 3.65049646 42.63439337 -4.30859375 42.60546875 C-5.38431641 42.60933594 -6.46003906 42.61320312 -7.56835938 42.6171875 C-13.34840768 42.61010845 -18.90572927 42.35124979 -24.62109375 41.48046875 C-24.21416951 31.46171332 -23.01216913 22.240267 -20.62109375 12.48046875 C-18.31109375 12.48046875 -16.00109375 12.48046875 -13.62109375 12.48046875 C-13.52828125 10.90265625 -13.52828125 10.90265625 -13.43359375 9.29296875 C-11.77358759 1.50370907 -7.4545694 -0.41105673 0 0 Z M-7.99609375 5.16796875 C-10.10021501 7.69123604 -10.10021501 7.69123604 -9.62109375 12.48046875 C-5.00109375 12.48046875 -0.38109375 12.48046875 4.37890625 12.48046875 C4.11497124 9.04816427 4.11497124 9.04816427 3.37890625 5.48046875 C-0.73364337 2.73876901 -3.842455 2.21669912 -7.99609375 5.16796875 Z " fill="#D9434B" transform="translate(26.62109375,0.51953125)"/>
  <path d="M0 0 C0.66902344 0.0721875 1.33804687 0.144375 2.02734375 0.21875 C15.38295006 1.50949316 28.65076482 1.30009943 42 0 C43.4783226 2.95664519 43.06032783 5.74229737 43 9 C35.08499455 9.86553429 27.27159021 10.15392462 19.3125 10.125 C18.23677734 10.12886719 17.16105469 10.13273437 16.05273438 10.13671875 C10.27268607 10.1296397 4.71536448 9.87078104 -1 9 C-1.125 2.25 -1.125 2.25 0 0 Z " fill="#CF1B27" transform="translate(3,33)"/>
  <path d="M0 0 C3.73313361 0.76498639 5.30580793 2.37277439 7.3828125 5.48828125 C7.6953125 8.30078125 7.6953125 8.30078125 7.3828125 10.48828125 C6.3928125 10.48828125 5.4028125 10.48828125 4.3828125 10.48828125 C4.0940625 9.68390625 3.8053125 8.87953125 3.5078125 8.05078125 C2.65018682 5.35563445 2.65018682 5.35563445 0.3828125 4.48828125 C-3.79035324 4.05985372 -3.79035324 4.05985372 -7.4296875 5.80078125 C-8.81174596 7.5930435 -8.81174596 7.5930435 -9.6171875 10.48828125 C-10.6071875 10.48828125 -11.5971875 10.48828125 -12.6171875 10.48828125 C-13.11874292 6.97739331 -12.73925194 5.67137791 -10.7421875 2.67578125 C-6.92716524 0.00526567 -4.57069843 -0.23876783 0 0 Z " fill="#CF1725" transform="translate(26.6171875,0.51171875)"/>
</svg>
